<?xml version="1.0" encoding="utf-8"?>
<!-- Generator: Adobe Illustrator 17.0.0, SVG Export Plug-In . SVG Version: 6.00 Build 0)  -->
<!DOCTYPE svg PUBLIC "-//W3C//DTD SVG 1.0//EN" "http://www.w3.org/TR/2001/REC-SVG-20010904/DTD/svg10.dtd">
<svg version="1.0" id="Layer_1" xmlns="http://www.w3.org/2000/svg" xmlns:xlink="http://www.w3.org/1999/xlink" x="0px" y="0px"
	 width="1920px" height="1080px" viewBox="0 0 1920 1080" enable-background="new 0 0 1920 1080" xml:space="preserve">
<path fill="#FEFEFE" d="M1909.136,55.242c0.052-21.668-5.772-26.302-26.743-26.281c-614.838,0.597-1229.677,0.6-1844.515-0.013
	c-20.875-0.021-26.599,4.287-26.545,26.013c0.802,324.496,0.784,648.996,0.028,973.492c-0.049,21.222,4.857,26.388,26.237,26.334
	c307.417-0.784,614.837-0.536,922.257-0.536c307.419,0,614.839-0.209,922.257,0.47c20.542,0.045,27.097-3.885,27.042-25.986
	C1908.357,704.238,1908.37,379.739,1909.136,55.242z M1805.058,969.653c-280.05-0.76-560.103-0.501-840.156-0.502
	c-280.052,0-560.106-0.305-840.156,0.568c-22.9,0.071-27.825-5.976-27.756-28.23c0.836-268.95,0.849-537.905,0.002-806.855
	c-0.074-23.46,6.006-29.552,29.503-29.523c559.25,0.679,1118.502,0.702,1677.752-0.056c24.41-0.033,29.165,7.44,29.103,30.072
	c-0.734,268.951-0.808,537.906,0.12,806.855C1833.55,965.214,1826.961,969.713,1805.058,969.653z"/>
<path fill="#FEFEFE" d="M1633.53,523.327c-52.032-0.012-104.065-0.014-156.097-0.016c-64.125-0.003-63.564-0.012-62.222,65.273
	c0.329,15.969,5.473,20.525,20.794,20.138c34.95-0.883,69.943,0.116,104.908-0.388c14.271-0.206,18.053,4.816,14.2,18.516
	c-14.564,51.767-44.057,91.152-93.043,114.902c-28.092,25.149-63.1,23.415-95.766,19.263
	c-66.004-8.391-117.698-41.652-150.629-101.092c-37.167-56.873-42.744-118.39-28.769-183.574
	c19.828-92.489,106.597-164.88,200.605-166.516c67.331-1.172,120.075,27.782,160.898,79.075
	c14.081,17.693,23.427,17.557,37.009,1.108c9.734-11.789,21.124-22.292,32.372-32.723c8.812-8.17,8.35-15.515,1.032-24.224
	c-56.971-67.81-128.059-109.409-217.813-111.912c-143.633-4.006-264.646,91.413-300.512,234.523
	c-41.528,165.702,43.616,326.544,202.761,383.024c53.604,8.03,107.159,13.094,160.413-2.432c9.579-2.793,19.209-5.407,28.817-8.104
	c20.88-9.697,40.109-21.804,58.057-36.398c81.382-66.178,106.509-154.463,102.064-254.98
	C1651.962,522.093,1643.003,523.33,1633.53,523.327z"/>
<path fill="#FEFEFE" d="M714.268,825.17c21.659-2.724,43.79-1.687,65.714-2.298c-8.526-21.868-17.052-43.737-25.577-65.605
	c-1.335-1.87-2.669-3.74-4.004-5.611c-23.667-30.522-37.214-65.619-46.415-102.681c-57.227-128.572-114.531-257.109-171.549-385.773
	c-5.312-11.986-13.571-15.216-26.073-15.727c-13.16-0.539-20.534,4.719-25.736,15.696c-10.869,22.939-21.926,45.79-32.905,68.676
	c-1.81,17.678-10.809,32.143-20.659,46.228c-13.772,30.017-27.449,60.078-41.333,90.043
	C332.975,581.978,280.48,695.96,226.968,809.462c-7.191,15.251-3.028,17.573,10.811,17.361c19.596-0.3,39.257-0.973,58.781,0.257
	c13.258,0.835,19.768-4.435,24.946-15.943c15.971-35.497,34.42-69.966,48.694-106.103c6.774-17.15,15.984-20.984,32.327-20.834
	c65.614,0.603,131.256,1.158,196.844-0.27c21.321-0.464,34.129,5.145,37.994,26.642c19.25,27.02,28.008,58.905,40.66,88.928
	C685.138,816.378,692.669,827.887,714.268,825.17z M568.203,608.758c-44.171-0.898-88.373-0.497-132.559-0.206
	c-13.093,0.086-17.125-3.337-10.456-16.26c11.216-21.732,21.326-44.035,31.901-66.098c6.562-33.829,26.687-62.054,39.031-93.528
	c5.062-12.905,14.07-11.206,19.004,1.746c11.118,29.183,27.695,56.146,35.218,86.78c9.997,22.428,20.214,44.762,29.899,67.324
	C585.221,600.113,586.725,609.135,568.203,608.758z"/>
<path fill="#FDFDFD" d="M960.463,309.808c0-62.851-0.004-62.115-62.779-62.409c-18.202-0.085-22.902,5.423-22.74,23.073
	c0.812,88.802,0.373,177.615,0.366,266.423c-0.007,76.854-0.007,153.708-0.007,230.562c0,59.85,0.011,59.024,59.787,59.805
	c19.958,0.261,25.951-5.059,25.845-25.593C960.088,637.72,960.463,473.763,960.463,309.808z"/>
</svg>
